<svg width="89" height="33" viewBox="0 0 89 33" fill="none" xmlns="http://www.w3.org/2000/svg">
<path d="M16.8232 19.783C16.172 20.1385 15.8463 20.7607 15.8463 21.4719C15.8463 22.0941 16.172 22.6274 16.7146 22.983C17.3659 23.3385 18.1256 23.6052 19.211 23.6052C20.839 23.6052 22.0329 23.2496 22.9012 22.5385C23.7695 21.8274 24.2037 20.9385 24.3122 19.783V19.2496H19.5366C18.3427 19.2496 17.4744 19.4274 16.8232 19.783Z" fill="#3F3B3D"/>
<path d="M54.0512 19.783C53.4 20.1385 53.0744 20.7607 53.0744 21.4719C53.0744 22.0941 53.4 22.6274 53.9427 22.983C54.5939 23.3385 55.3537 23.6052 56.439 23.6052C58.0671 23.6052 59.261 23.2496 60.1293 22.5385C60.9976 21.8274 61.4317 20.9385 61.5402 19.783V19.2496H56.7646C55.5707 19.2496 54.7024 19.4274 54.0512 19.783Z" fill="#3F3B3D"/>
<path d="M88.5659 15.4274C88.5659 11.5163 84.7671 8.4941 80.1 8.4941C79.6659 8.4941 79.1232 8.4941 78.689 8.58299C78.7976 8.31632 78.7976 7.96076 78.7976 7.6941C78.7976 4.4941 75.5415 1.91632 71.7427 1.91632C68.4866 1.91632 65.6646 3.6941 64.9049 6.18299C63.711 5.91632 62.5171 5.82743 61.3232 5.82743C60.1293 5.82743 58.9354 6.00521 57.7415 6.18299C57.0902 5.02743 55.5707 4.22743 53.9427 4.22743C52.9659 4.22743 52.0976 4.4941 51.3378 4.93854C50.7951 2.44965 48.1902 0.671875 45.1512 0.671875C42.0037 0.671875 39.3988 2.53854 38.9646 5.02743C37.1195 3.78299 34.6232 3.07188 32.1268 3.07188C28.9793 3.07188 26.1573 4.13854 24.2037 5.91632C22.7927 5.64965 21.3817 5.38299 19.8622 5.38299C17.0402 5.38299 14.4354 5.91632 12.1561 6.98299C11.0707 6.53854 9.87683 6.27188 8.57439 6.27188C4.12439 6.27188 0.542683 9.2941 0.542683 12.8497C0.542683 14.8941 1.62805 16.6719 3.36463 17.8274C3.36463 18.183 3.2561 18.6274 3.2561 19.0719C3.14756 26.6274 10.6366 32.6719 19.8622 32.6719C22.6841 32.6719 25.289 32.1385 27.4598 31.1608C28.8707 31.783 30.6073 32.1385 32.3439 32.1385C36.0341 32.1385 39.0732 30.5385 40.9183 28.1385C42.4378 29.4719 44.5 30.2719 46.7793 30.2719C48.2988 30.2719 49.8183 29.9163 51.0122 29.2941C53.6171 31.1608 57.0902 32.3163 60.672 32.3163C64.1451 32.3163 67.2927 31.3385 69.789 29.6497C71.3085 30.8941 73.3707 31.6052 75.7585 31.6052C80.5342 31.6052 84.2244 28.4941 84.2244 24.6719C84.2244 23.6052 83.8988 22.6274 83.4646 21.7385C86.5037 20.7608 88.5659 18.2719 88.5659 15.4274ZM30.0646 25.9163H28.0024C26.8085 25.9163 25.9402 25.7385 25.3976 25.2941C24.8549 24.8497 24.6378 24.3163 24.6378 23.5163C23.2268 25.2052 21.2732 26.0941 18.6683 26.0941C16.6061 26.0941 14.978 25.7385 13.7841 24.9385C12.5902 24.1385 11.939 23.0719 11.939 21.7385C11.939 20.2274 12.5902 19.0719 13.8927 18.183C15.1951 17.383 17.1488 16.9385 19.6451 16.9385H24.2037V16.0497C24.2037 15.2497 23.878 14.5385 23.1183 14.0941C22.3585 13.6497 21.3817 13.383 20.1878 13.383C19.1024 13.383 18.1256 13.5608 17.4744 14.0052C16.7146 14.3608 16.2805 14.8941 16.172 15.6052H12.3732C12.5902 14.0941 13.35 12.9385 14.761 12.1385C16.172 11.3385 18.0171 10.8941 20.2963 10.8941C22.6841 10.8941 24.6378 11.3385 25.9402 12.3163C27.2427 13.2052 27.8939 14.6274 27.8939 16.3163V22.0941C27.8939 22.8052 28.328 23.1608 29.0878 23.1608L30.0646 23.0719C30.0646 23.1608 30.0646 25.9163 30.0646 25.9163ZM41.3524 14.0052H39.6159C37.9878 14.0052 36.9024 14.4497 36.1427 15.2497C35.3829 16.0497 35.0573 17.2052 35.0573 18.4497V25.8274H31.2585V11.0719H34.7317L35.1659 13.2941C35.7085 12.583 36.3598 12.0497 37.228 11.6941C38.0963 11.3385 39.1817 11.0719 40.5927 11.0719H41.461C41.3524 11.0719 41.3524 14.0052 41.3524 14.0052ZM46.8878 25.9163H43.089V11.0719H46.8878V25.9163ZM46.6707 8.31632C46.2366 8.67188 45.6939 8.84965 45.0427 8.84965C44.3915 8.84965 43.8488 8.67188 43.4146 8.31632C42.9805 7.96076 42.7634 7.51632 42.7634 6.98299C42.7634 6.44965 42.9805 6.00521 43.4146 5.73854C43.8488 5.38299 44.3915 5.20521 45.0427 5.20521C45.6939 5.11632 46.2366 5.2941 46.6707 5.73854C47.1049 6.0941 47.322 6.53854 47.322 7.07187C47.322 7.60521 47.1049 7.96076 46.6707 8.31632ZM67.1842 25.9163H65.122C63.9281 25.9163 63.0598 25.7385 62.5171 25.2941C61.9744 24.8497 61.7573 24.3163 61.7573 23.5163C60.3463 25.2052 58.3927 26.0941 55.7878 26.0941C53.7256 26.0941 52.0976 25.7385 50.9037 24.9385C49.7098 24.1385 49.0585 23.0719 49.0585 21.7385C49.0585 20.2274 49.7098 19.0719 51.0122 18.183C52.3146 17.383 54.2683 16.9385 56.7646 16.9385H61.3232V16.0497C61.3232 15.2497 60.9976 14.5385 60.2378 14.0941C59.4781 13.6497 58.5012 13.383 57.3073 13.383C56.222 13.383 55.2451 13.5608 54.5939 14.0052C53.8341 14.3608 53.4 14.8941 53.2915 15.6052H49.4927C49.7098 14.0941 50.4695 12.9385 51.8805 12.1385C53.2915 11.3385 55.1366 10.8941 57.4159 10.8941C59.8037 10.8941 61.7573 11.3385 63.0598 12.3163C64.3622 13.2052 65.0134 14.6274 65.0134 16.3163V22.0941C65.0134 22.8052 65.4476 23.1608 66.2073 23.1608L67.1842 23.0719C67.1842 23.1608 67.1842 25.9163 67.1842 25.9163ZM73.0451 25.9163H69.2463V5.64965H73.0451V25.9163Z" fill="#3F3B3D"/>
</svg>
