<svg width="128" height="32" viewBox="0 0 128 32" fill="none" xmlns="http://www.w3.org/2000/svg">
<path d="M22.3475 24.3556H11.6459C11.3311 24.3556 11.1213 24.2667 10.9115 24L3.14754 12.5333C3.04262 12.3556 3.04262 12.0889 3.14754 11.8222L10.9115 0.355556C11.1213 0 11.6459 -0.0888889 12.0656 0.0888889C12.4852 0.266667 12.5902 0.711111 12.3803 1.06667L4.82622 12.1778L12.1705 22.9333H22.4525C22.8721 22.9333 23.2918 23.2889 23.2918 23.6444C23.2918 24 22.8721 24.3556 22.3475 24.3556Z" fill="#3F3B3D"/>
<path d="M14.2689 20.8C14.059 20.8 13.7443 20.7111 13.5344 20.4444L8.18361 12.5333C8.07869 12.3556 8.07869 12.0889 8.18361 11.8222L16.0525 0.355556C16.1574 0.177778 16.4721 0 16.7869 0H32.4197C32.8393 0 33.259 0.355556 33.259 0.711111C33.259 1.06667 32.8393 1.42222 32.4197 1.42222H17.2066L9.8623 12.1778L15.0033 19.7333C15.2131 20.0889 15.1082 20.4444 14.6885 20.7111C14.5836 20.8 14.4787 20.8 14.2689 20.8Z" fill="#3F3B3D"/>
<path d="M42.7016 16.7111C42.4918 16.7111 42.177 16.6222 41.9672 16.3555L34.518 5.24443H19.8295L14.6885 12.8C14.4787 13.1555 13.9541 13.2444 13.5344 13.0666C13.1147 12.8889 13.0098 12.4444 13.2197 12.0889L18.5705 4.17776C18.6754 3.99998 18.9902 3.8222 19.3049 3.8222H34.9377C35.2525 3.8222 35.4623 3.91109 35.6721 4.17776L43.4361 15.6444C43.6459 16 43.541 16.3555 43.1213 16.6222C43.0164 16.6222 42.9115 16.7111 42.7016 16.7111Z" fill="#3F3B3D"/>
<path d="M32.4196 32C32.3147 32 32.2098 31.9111 32 31.9111C31.5803 31.7334 31.4754 31.2889 31.6852 30.9334L39.2393 19.8222L31.8951 9.06669H21.718C21.2983 9.06669 20.8787 8.71114 20.8787 8.35558C20.8787 8.00003 21.2983 7.64447 21.718 7.64447H32.4196C32.7344 7.64447 32.9442 7.73336 33.1541 8.00003L40.918 19.4667C41.0229 19.6445 41.0229 19.9111 40.918 20.1778L33.1541 31.6445C33.0492 31.8222 32.7344 32 32.4196 32Z" fill="#3F3B3D"/>
<path d="M27.2787 31.9111H11.6459C11.2262 31.9111 10.8065 31.5556 10.8065 31.2C10.8065 30.8445 11.2262 30.4889 11.6459 30.4889H26.859L34.2033 19.7334L29.0623 12.1778C28.8525 11.8223 28.9574 11.4667 29.377 11.2C29.7967 11.0223 30.2164 11.1111 30.5311 11.4667L35.882 19.3778C35.9869 19.5556 35.9869 19.8223 35.882 20.0889L28.0131 31.5556C27.9082 31.8223 27.5934 31.9111 27.2787 31.9111Z" fill="#3F3B3D"/>
<path d="M24.8656 28.0889H9.12785C8.8131 28.0889 8.60326 28.0001 8.39343 27.7334L0.629494 16.3556C0.419658 16.0001 0.524576 15.5556 0.83933 15.3778C1.259 15.2001 1.67867 15.2889 1.99343 15.6445L9.54753 26.7556H24.236L29.377 19.2001C29.5869 18.8445 30.1115 18.7556 30.5311 18.9334C30.9508 19.1112 31.0557 19.5556 30.8459 19.9112L25.4951 27.7334C25.2852 28.0001 25.0754 28.0889 24.8656 28.0889Z" fill="#3F3B3D"/>
<path d="M71.0295 13.6H69.0361C68.5115 12.2667 67.6721 11.2 66.4131 10.4C65.1541 9.51112 63.6852 9.06668 61.9016 9.06668C59.5934 9.06668 57.7049 9.77779 56.2361 11.1111C54.7672 12.4445 54.0328 14.2222 54.0328 16.4445C54.0328 18.6667 54.7672 20.3556 56.2361 21.7778C57.7049 23.2 59.4885 23.8222 61.9016 23.8222C63.5803 23.8222 65.1541 23.3778 66.4131 22.4889C67.5672 21.6 68.5115 20.5333 69.0361 19.2889H70.7147H73.3377C72.7082 21.4222 71.3443 23.2 69.4557 24.6222C67.5672 26.0445 65.0492 26.7556 62.0065 26.7556C58.2295 26.7556 55.2918 25.7778 53.0885 23.7333C50.7803 21.7778 49.6262 19.2889 49.6262 16.3556C49.6262 13.4222 50.7803 11.0222 53.0885 8.97779C55.2918 7.02223 58.3344 5.95557 62.0065 5.95557C65.0492 5.95557 67.5672 6.66668 69.4557 8.0889C71.4492 9.51112 72.7082 11.2889 73.3377 13.4222H71.0295V13.6Z" fill="#3F3B3D"/>
<path d="M80.8918 4.1778V6.5778V9.7778V10.9334V13.7778V16.8V22.2222V26.4889H76.6951V22.2222V16.6222V13.6V10.6667V6.22224V4.1778H80.8918Z" fill="#3F3B3D"/>
<path d="M87.3967 12.1778C89.1803 10.5778 91.5934 9.77777 94.5311 9.77777C97.4688 9.77777 99.777 10.5778 101.666 12.1778C103.554 13.7778 104.393 15.8222 104.393 18.2222V18.6667C104.393 18.8444 104.289 19.0222 104.289 19.1111H102.61H101.875H99.9869H89.0754C89.2852 20.3555 89.8098 21.3333 90.6492 22.1333C91.6984 23.1111 93.1672 23.6444 94.9508 23.6444C96 23.6444 96.9443 23.4667 97.5738 23.0222C98.3082 22.6667 98.9377 22.1333 99.3574 21.5111H99.882H100.092H101.666H104.079C103.344 23.0222 102.19 24.2667 100.616 25.1555C99.0426 26.0444 97.0492 26.4889 94.8459 26.4889C91.6984 26.4889 89.2852 25.6889 87.5016 24.0889C85.6131 22.4889 84.7738 20.4444 84.7738 18.0444C84.7738 15.7333 85.718 13.7778 87.3967 12.1778ZM100.092 16.8889C99.882 15.8222 99.4623 14.9333 98.7279 14.2222C97.7836 13.2444 96.4197 12.7111 94.6361 12.7111C92.8525 12.7111 91.4885 13.1555 90.5443 14.2222C89.8098 14.9333 89.3902 15.8222 89.1803 16.8889H100.092Z" fill="#3F3B3D"/>
<path d="M109.744 12.1778C111.633 10.5778 114.046 9.77777 117.193 9.77777C120.341 9.77777 122.859 10.5778 124.643 12.1778C126.531 13.7778 127.37 15.8222 127.37 18.2222C127.37 20.6222 126.531 22.7555 124.643 24.2667C122.859 25.8667 120.341 26.6667 117.193 26.6667H117.089C113.941 26.6667 111.423 25.8667 109.639 24.2667C107.751 22.6667 106.911 20.6222 106.911 18.2222C107.016 15.7333 107.961 13.7778 109.744 12.1778ZM121.495 14.2222C120.446 13.2444 118.977 12.6222 117.193 12.6222C115.41 12.6222 114.046 13.1555 112.892 14.2222C111.843 15.2 111.213 16.6222 111.213 18.2222C111.213 19.8222 111.738 21.1555 112.892 22.2222C113.941 23.2 115.41 23.7333 117.193 23.7333C118.977 23.7333 120.446 23.2889 121.495 22.2222C122.544 21.2444 123.174 19.8222 123.174 18.2222C123.174 16.6222 122.544 15.2889 121.495 14.2222Z" fill="#3F3B3D"/>
</svg>
