<svg width="128" height="33" viewBox="0 0 128 33" fill="none" xmlns="http://www.w3.org/2000/svg">
<g clip-path="url(#clip0_37_42)">
<path d="M3.87283 1.383L10.6339 24.6719L16.6072 3.69411L22.7118 24.7608L29.2759 1.383H31.1139L22.3836 32.3163H21.2677L15.6882 13.1163L10.3056 32.2274H8.99283L0.131287 1.383H3.87283Z" fill="#3F3B3D"/>
<path d="M38.9251 0.671875L49.559 31.9608H45.6862L42.2072 21.7385H32.5579L29.0133 31.9608H27.1097L38.0062 0.671875H38.9251ZM33.2144 19.783H41.5508L37.4154 7.78299L33.2144 19.783Z" fill="#3F3B3D"/>
<path d="M53.038 1.383H56.7795V30.0052H68.1354V31.9608H52.9723V1.383H53.038Z" fill="#3F3B3D"/>
<path d="M105.223 1.383V3.33855H93.3415V14.3608H101.284V16.3163H93.3415V30.0052H105.223V31.9608H89.4687V1.383H105.223Z" fill="#3F3B3D"/>
<path d="M109.227 1.383H111.327L126.096 23.783H126.228V1.383H127.869V32.6719H127.081L111.065 7.87188H110.933V32.0497H109.161L109.227 1.383Z" fill="#3F3B3D"/>
<path d="M84.9395 10.0941C84.2831 8.2274 83.3641 6.44962 82.0513 5.0274C80.9354 3.78296 79.4913 2.80518 77.8503 2.18296C76.2092 1.56073 74.1744 1.29407 71.8113 1.29407H64.2626V25.4718H68.1354V3.60518H72.2051C73.5836 3.60518 74.8308 3.87185 75.881 4.58296C77.0626 5.20518 77.9815 6.09407 78.7692 7.24962C79.5569 8.40518 80.2133 9.8274 80.6728 11.3385C81.1323 12.9385 81.3292 14.7163 81.3292 16.583C81.3292 18.7163 81.1323 20.583 80.6072 22.2718C80.0821 23.9607 79.4256 25.2941 78.638 26.3607C77.7846 27.4274 76.8 28.3163 75.6841 28.9385C74.5026 29.5607 73.3867 29.8274 72.0739 29.8274H71.4174V32.0496H72.6646C74.7651 32.0496 76.6687 31.6941 78.2441 30.8052C79.8195 30.0052 81.198 28.8496 82.3795 27.4274C83.4954 26.0941 84.3487 24.4052 84.9395 22.4496C85.5303 20.583 85.7928 18.5385 85.7928 16.4052C85.8585 14.0941 85.5959 12.0496 84.9395 10.0941Z" fill="#3F3B3D"/>
</g>
<defs>
<clipPath id="clip0_37_42">
<rect width="128" height="32" fill="white" transform="translate(0 0.671875)"/>
</clipPath>
</defs>
</svg>
