<svg width="128" height="33" viewBox="0 0 128 33" fill="none" xmlns="http://www.w3.org/2000/svg">
<g clip-path="url(#clip0_37_60)">
<path d="M44.8831 11.4274C45.2987 11.4274 45.6312 11.4274 45.7143 11.5163C45.7974 11.6052 45.7974 11.6941 45.7974 12.0496C45.7974 12.2274 45.8805 12.4941 45.9636 12.4941C46.0467 12.4941 46.2961 12.4052 46.7117 12.0496C47.0441 11.8718 47.2935 11.6052 47.7922 11.5163C48.2078 11.4274 48.6234 11.3385 49.0389 11.3385C49.8701 11.3385 50.6182 11.6941 51.2831 12.3163C51.7818 12.7607 52.1974 13.3829 52.5299 14.1829C52.8623 14.9829 52.9454 15.6941 52.9454 16.5829C52.9454 18.4496 52.3636 19.7829 51.2 21.0274C50.2857 21.9163 49.3714 22.4496 48.2909 22.4496C47.7091 22.4496 47.2104 22.3607 46.5454 22.0052C46.4623 21.9163 46.3792 21.9163 46.213 21.9163C46.0467 21.9163 45.8805 22.0941 45.8805 22.5385C45.8805 23.0718 46.0467 23.5163 46.3792 23.6941C46.7117 23.8718 46.8779 24.1385 46.961 24.1385C47.0441 24.2274 47.0441 24.3163 47.0441 24.5829C47.0441 25.0274 46.8779 25.3829 46.2961 25.5607C45.8805 25.7385 45.2156 25.9163 44.3844 25.9163C42.9714 25.9163 41.6415 25.5607 40.561 24.9385C40.0623 24.5829 39.7299 24.3163 39.7299 23.7829C39.7299 23.6052 39.7299 23.4274 39.813 23.3385C39.8961 23.2496 39.9792 23.1607 40.3117 22.9829C40.6441 22.8052 40.8935 22.5385 40.8935 22.0052C40.9766 21.5607 40.9766 20.3163 41.0597 18.0941C41.0597 16.4052 40.9766 15.4274 40.8935 15.1607C40.8935 15.0718 40.8104 15.0718 40.8104 15.0718C40.8104 15.0718 40.7273 14.8941 40.3948 14.8941C40.2286 14.8941 39.9792 14.8052 39.8961 14.5385C39.813 14.3607 39.7299 14.1829 39.7299 13.9163C39.7299 13.6496 39.813 13.3829 40.0623 13.1163C40.2286 12.9385 40.561 12.6718 40.9766 12.4941C42.6389 11.8718 43.9688 11.4274 44.8831 11.4274ZM45.8805 15.4274L45.7974 18.3607C45.7974 18.4496 45.7974 18.5385 45.7974 18.7163C45.7974 18.8941 45.8805 19.1607 46.1299 19.2496C46.2961 19.3385 46.5454 19.4274 46.8779 19.4274C47.7922 19.4274 48.2909 18.6274 48.2909 17.0274C48.2909 15.9607 48.1247 15.3385 47.7091 14.8941C47.5428 14.7163 47.2104 14.4496 46.8779 14.4496C46.213 14.4496 45.8805 14.8052 45.8805 15.4274Z" fill="#3F3B3D"/>
<path d="M62.8364 17.2052H58.1818C58.0156 17.2052 57.8494 17.2941 57.8494 17.5607C57.8494 18.0052 58.0156 18.4496 58.5974 18.8941C59.1792 19.3385 59.5948 19.5163 60.0935 19.5163C60.426 19.5163 60.8416 19.4274 61.174 19.3385C61.5896 19.2496 61.9221 18.983 62.1714 18.8941C62.3377 18.7163 62.587 18.7163 62.6701 18.7163C62.8364 18.7163 63.0026 18.8052 63.1688 19.0718C63.3351 19.2496 63.3351 19.5163 63.3351 19.8718C63.3351 20.4052 63.0026 20.8496 62.4208 21.383C61.4234 22.2718 60.0935 22.7163 58.7636 22.7163C57.3507 22.7163 56.2701 22.2718 55.1896 21.383C54.6909 20.9385 54.3584 20.4052 54.1091 19.8718C53.6935 19.0718 53.5273 18.2718 53.5273 17.2941C53.5273 16.1385 53.8597 14.983 54.5247 14.0941C55.1065 13.2052 55.8546 12.6718 56.7688 12.2274C57.5169 11.8718 58.1818 11.783 59.013 11.783C60.3429 11.783 61.3403 12.2274 62.2546 12.9385C62.6701 13.383 63.0857 13.8274 63.3351 14.3607C63.6675 14.983 63.8338 15.5163 63.8338 16.0496C63.8338 16.4941 63.7507 16.9385 63.5013 17.2052C63.3351 17.0274 63.1688 17.2052 62.8364 17.2052ZM58.4312 15.2496H59.4286C59.8442 15.2496 60.0104 15.0718 60.0104 14.6274C60.0104 14.183 59.9273 14.0052 59.6779 13.6496C59.5117 13.4718 59.1792 13.2941 58.8468 13.2941C58.4312 13.2941 58.0987 13.383 57.9325 13.7385C57.7662 14.0941 57.6 14.2718 57.6 14.6274C57.6 14.8052 57.6 14.983 57.6831 15.0718C58.0156 15.2496 58.1818 15.2496 58.4312 15.2496Z" fill="#3F3B3D"/>
<path d="M70.2337 14.1829V17.7385C70.2337 18.1829 70.3168 18.5385 70.5662 18.8052C70.7324 19.1607 70.9818 19.2496 71.3143 19.2496C71.6467 19.2496 71.8961 19.1607 72.3117 18.8052C72.4779 18.8052 72.6441 18.8052 72.7272 18.8052C72.8935 18.8052 73.0597 18.8941 73.1428 19.1607C73.2259 19.3385 73.3091 19.6052 73.3091 19.7829C73.3091 20.2274 73.1428 20.6718 72.561 21.1163C71.6467 22.0052 70.4 22.4496 69.1532 22.4496C68.0727 22.4496 67.2415 22.0941 66.6597 21.4718C66.0779 20.8496 65.6623 19.9607 65.6623 18.8941V13.9163C65.6623 13.7385 65.6623 13.7385 65.5792 13.5607C65.5792 13.5607 65.4961 13.4718 65.2467 13.4718H64.2493C64.0831 13.4718 63.9168 13.4718 63.8337 13.3829C63.7506 13.2941 63.7506 13.2052 63.7506 12.9385V12.4941C63.7506 12.3163 63.8337 12.1385 63.9168 12.0496L68.6545 8.9385C68.7376 8.84961 68.987 8.84961 69.0701 8.84961H69.9013C70.0675 8.84961 70.2337 8.84961 70.2337 8.9385C70.3168 9.02739 70.3168 9.11628 70.3168 9.38294V10.8052C70.3168 10.9829 70.3168 11.1607 70.4 11.2496C70.4831 11.3385 70.5662 11.3385 70.8155 11.3385H72.6441C72.8104 11.3385 73.0597 11.3385 73.1428 11.4274C73.2259 11.5163 73.2259 11.7829 73.2259 12.0496V12.6718C73.2259 13.0274 73.2259 13.2052 73.1428 13.4718C73.0597 13.5607 72.8104 13.6496 72.6441 13.6496H70.8155C70.6493 13.6496 70.4831 13.6496 70.4 13.7385C70.2337 13.8274 70.2337 13.9163 70.2337 14.1829Z" fill="#3F3B3D"/>
<path d="M77.7974 11.3385C78.1299 11.3385 78.7117 11.4274 79.3766 11.5163C79.5429 11.5163 79.7091 11.5163 79.7922 11.5163C79.8753 11.5163 80.1247 11.4274 80.5403 11.3385C80.7065 11.2496 80.8727 11.2496 80.9559 11.2496C81.2883 11.2496 81.5377 11.4274 81.8701 11.8719C82.2026 12.2274 82.3688 12.4941 82.452 12.9385C82.6182 13.383 82.6182 13.7385 82.6182 14.0052C82.6182 14.3607 82.5351 14.5385 82.2857 14.8052C82.1195 14.983 81.8701 15.1607 81.5377 15.1607C81.3714 15.1607 81.1221 15.0719 80.9559 14.983C80.7896 14.8941 80.4572 14.5385 80.0416 14.183C79.626 13.7385 79.2104 13.5607 79.0442 13.5607C78.8779 13.5607 78.7117 13.6496 78.5455 13.7385C78.4623 13.8274 78.3792 14.0941 78.3792 14.2719C78.3792 14.6274 78.7117 14.8941 79.2935 15.2496C80.374 15.783 81.2883 16.3163 81.9533 16.9385C82.452 17.4719 82.7844 18.0941 82.7844 18.8941C82.7844 19.8719 82.3688 20.7607 81.5377 21.383C80.7896 21.9163 80.0416 22.2719 79.0442 22.2719C78.7117 22.2719 78.2961 22.2719 77.6312 22.183C76.9662 22.0052 76.5507 22.0052 76.4675 22.0052C76.3844 22.0052 76.3013 22.0052 76.1351 22.0052C75.9688 22.0052 75.8026 22.0052 75.7195 22.0052C75.387 22.0052 75.1377 21.9163 74.9714 21.8274C74.639 21.6496 74.4727 21.2052 74.1403 20.4941C73.974 19.9607 73.8078 19.4274 73.8078 19.0719C73.8078 18.4496 73.974 18.0941 74.5558 18.0941C74.7221 18.0941 74.9714 18.183 75.0546 18.2719C75.2208 18.3607 75.5533 18.7163 76.052 19.3385C76.3844 19.6941 76.5507 19.8719 76.8 19.9607C76.9662 20.0496 77.2156 20.1385 77.3818 20.1385C77.5481 20.1385 77.7974 20.0496 77.8805 19.9607C77.9636 19.8719 78.0468 19.6052 78.0468 19.4274C78.0468 19.0719 77.7143 18.8052 77.2156 18.5385C76.1351 18.0052 75.387 17.383 74.8883 16.8496C74.3896 16.2274 74.1403 15.5163 74.1403 14.8052C74.1403 13.9163 74.3065 13.2052 74.8883 12.6719C75.5533 11.783 76.5507 11.3385 77.7974 11.3385Z" fill="#3F3B3D"/>
<path d="M88.3533 11.4274C88.7688 11.4274 89.1013 11.4274 89.1844 11.5163C89.2675 11.6052 89.2675 11.6941 89.2675 12.0496C89.2675 12.2274 89.3507 12.4941 89.4338 12.4941C89.5169 12.4941 89.7662 12.4052 90.1818 12.0496C90.5143 11.8718 90.7637 11.6052 91.2624 11.5163C91.6779 11.4274 92.0935 11.3385 92.5091 11.3385C93.3403 11.3385 94.0883 11.6941 94.7533 12.3163C95.252 12.7607 95.6675 13.3829 96 14.1829C96.3325 14.9829 96.4156 15.6941 96.4156 16.5829C96.4156 18.4496 95.8338 19.7829 94.6701 21.0274C93.7559 21.9163 92.8416 22.4496 91.7611 22.4496C91.1792 22.4496 90.6805 22.3607 90.0156 22.0052C89.9325 21.9163 89.8494 21.9163 89.6831 21.9163C89.5169 21.9163 89.3507 22.0941 89.3507 22.5385C89.3507 23.0718 89.5169 23.5163 89.8494 23.6941C90.1818 23.8718 90.3481 24.1385 90.4312 24.1385C90.5143 24.2274 90.5143 24.3163 90.5143 24.5829C90.5143 25.0274 90.3481 25.3829 89.7662 25.5607C89.3507 25.7385 88.6857 25.9163 87.8546 25.9163C86.4416 25.9163 85.1117 25.5607 84.0312 24.9385C83.5325 24.5829 83.2 24.3163 83.2 23.7829C83.2 23.6052 83.2 23.4274 83.2831 23.3385C83.3662 23.2496 83.4494 23.1607 83.7818 22.9829C84.1143 22.8052 84.3636 22.5385 84.3636 22.0052C84.4468 21.5607 84.4468 20.3163 84.5299 18.0941C84.5299 16.4052 84.4468 15.4274 84.3636 15.1607C84.3636 15.0718 84.2805 15.0718 84.2805 15.0718C84.2805 15.0718 84.1974 14.8941 83.9481 14.8941C83.7818 14.8941 83.5325 14.8052 83.4494 14.5385C83.3662 14.3607 83.2831 14.1829 83.2831 13.9163C83.2831 13.6496 83.3662 13.3829 83.6156 13.1163C83.7818 12.9385 84.1143 12.6718 84.5299 12.4941C86.1922 11.8718 87.3559 11.4274 88.3533 11.4274ZM89.3507 15.4274L89.2675 18.3607C89.2675 18.4496 89.2675 18.5385 89.2675 18.7163C89.2675 18.8941 89.3507 19.1607 89.6 19.2496C89.7662 19.3385 90.0156 19.4274 90.3481 19.4274C91.2623 19.4274 91.7611 18.6274 91.7611 17.0274C91.7611 15.9607 91.5948 15.3385 91.1792 14.8941C91.013 14.7163 90.6805 14.4496 90.3481 14.4496C89.6831 14.4496 89.3507 14.8052 89.3507 15.4274Z" fill="#3F3B3D"/>
<path d="M102.732 13.4719V16.9385C102.732 18.4496 102.732 19.3385 102.816 19.5163C102.816 19.6941 102.982 19.9607 103.314 20.0496C103.481 20.1385 103.73 20.2274 103.813 20.4052C103.896 20.4941 103.896 20.583 103.896 20.8496C103.896 21.0274 103.813 21.2941 103.73 21.4719C103.564 21.6496 103.314 21.8274 103.148 21.9163C102.649 22.0052 101.818 22.0941 100.738 22.0941C99.4078 22.0941 98.4935 22.0052 97.9948 21.7385C97.8286 21.6496 97.5792 21.5607 97.413 21.2941C97.2468 21.1163 97.2468 20.8496 97.2468 20.6719C97.2468 20.4941 97.2468 20.3163 97.3299 20.2274C97.413 20.1385 97.6624 20.0496 97.8286 19.8719C98.1611 19.783 98.2442 19.4274 98.3273 18.8941C98.4104 17.9163 98.4935 16.583 98.4935 14.8941C98.4935 13.2052 98.4935 12.0496 98.4104 11.5163C98.3273 10.983 98.0779 10.6274 97.6624 10.4496C97.3299 10.2719 97.1637 10.0941 97.0805 10.0052C96.9974 9.9163 96.9143 9.82741 96.9143 9.56074C96.9143 9.20519 97.0805 8.93852 97.413 8.67186C97.7455 8.49408 98.2442 8.13852 98.9091 7.87186C99.4078 7.78297 99.9065 7.5163 100.738 7.42741C101.486 7.33852 102.068 7.24963 102.317 7.24963C102.816 7.24963 103.148 7.60519 103.148 8.3163C103.148 8.49408 103.148 9.1163 103.065 9.9163C102.816 11.3385 102.816 12.4941 102.732 13.4719Z" fill="#3F3B3D"/>
<path d="M110.213 11.3385C111.293 11.3385 112.374 11.6941 113.122 12.3163C113.538 12.6718 113.87 13.1163 114.036 13.4718C114.203 13.9163 114.369 14.4496 114.369 15.1607V16.7607C114.369 17.8274 114.452 18.6274 114.535 18.8941C114.618 18.9829 114.618 19.0718 114.701 19.2496C114.784 19.2496 114.868 19.3385 115.117 19.3385C115.366 19.3385 115.449 19.5163 115.449 19.7829C115.449 20.1385 115.366 20.4052 115.034 20.8496C114.701 21.2052 114.452 21.4718 114.036 21.8274C113.538 22.1829 113.039 22.2718 112.457 22.2718C111.709 22.2718 111.21 22.0941 110.878 21.4718C110.795 21.2941 110.545 21.1163 110.462 21.1163C110.379 21.1163 110.13 21.2052 109.964 21.2941C109.216 21.8274 108.551 22.0941 107.719 22.0941C106.805 22.0941 106.14 21.9163 105.558 21.4718C105.226 21.2941 104.977 20.8496 104.727 20.4052C104.561 19.9607 104.395 19.5163 104.395 19.0718C104.395 18.2718 104.727 17.6496 105.226 17.1163C106.14 16.2274 107.47 15.7829 109.132 15.6941C109.548 15.6941 109.714 15.6941 109.88 15.6052C109.964 15.5163 109.964 15.2496 109.964 15.0718C109.964 14.2718 109.88 13.7385 109.797 13.4718C109.714 13.2052 109.382 12.9385 109.049 12.9385C108.883 12.9385 108.634 13.0274 108.551 13.1163C108.384 13.2052 108.218 13.4718 107.969 13.9163C107.387 14.8052 106.722 15.3385 106.14 15.3385C105.808 15.3385 105.558 15.2496 105.309 14.9829C105.06 14.7163 104.977 14.5385 104.977 14.0941C104.977 13.7385 105.06 13.4718 105.392 13.1163C105.725 12.7607 105.974 12.4941 106.39 12.2274C107.636 11.6941 108.883 11.3385 110.213 11.3385ZM109.548 17.4718C109.216 17.4718 109.049 17.5607 108.717 17.9163C108.551 18.0941 108.384 18.4496 108.384 18.8052C108.384 19.1607 108.468 19.4274 108.551 19.6941C108.717 19.8718 108.966 20.0496 109.132 20.0496C109.631 20.0496 109.964 19.6052 109.964 18.6274C109.964 18.1829 109.964 18.0052 109.88 17.8274C109.88 17.5607 109.797 17.4718 109.548 17.4718Z" fill="#3F3B3D"/>
<path d="M125.008 16.6719L123.678 20.583C123.345 21.5607 123.096 22.2719 122.681 22.983C122.348 23.6052 121.932 24.0496 121.6 24.4941C120.686 25.383 119.688 25.8274 118.442 25.8274C117.444 25.8274 116.613 25.4719 116.031 24.9385C115.532 24.4941 115.283 23.9607 115.283 23.3385C115.283 22.8052 115.449 22.3607 115.782 21.9163C116.114 21.5607 116.53 21.383 117.029 21.383C117.527 21.383 117.943 21.5607 118.109 21.9163C118.192 22.0052 118.275 22.2719 118.442 22.3607C118.442 22.4496 118.525 22.8052 118.608 23.1607C118.691 23.5163 118.774 23.6052 119.107 23.6052C119.273 23.6052 119.522 23.5163 119.605 23.2496C119.688 23.0719 119.771 22.8052 119.771 22.4496C119.771 22.0941 119.605 21.5607 119.273 20.7607L116.862 15.2496C116.53 14.7163 116.447 14.2719 116.281 14.183C116.197 14.0941 115.865 13.8274 115.449 13.6496C115.366 13.5607 115.283 13.4719 115.117 13.2941C114.951 13.1163 115.034 12.9385 115.034 12.8496C115.034 12.2274 115.616 11.783 116.779 11.5163C117.61 11.4274 118.525 11.3385 119.522 11.3385C120.27 11.3385 120.769 11.4274 121.101 11.5163C121.6 11.6941 121.932 12.0496 121.932 12.583C121.932 12.7607 121.849 13.0274 121.766 13.2052C121.683 13.383 121.6 13.6496 121.6 13.8274C121.6 14.0052 121.6 14.183 121.683 14.3607C121.766 14.5385 121.849 14.8941 122.099 15.3385C122.431 15.8719 122.597 16.1385 122.847 16.1385C123.013 16.1385 123.262 15.9607 123.429 15.5163C123.595 15.0719 123.761 14.6274 123.761 14.183C123.761 13.8274 123.678 13.6496 123.595 13.383C123.262 13.0274 123.179 12.8496 123.179 12.4941C123.179 12.1385 123.345 11.8719 123.927 11.6052C124.343 11.4274 124.925 11.2496 125.756 11.2496C127.169 11.2496 127.917 11.6052 127.917 12.3163C127.917 12.4941 127.834 12.7607 127.751 12.9385C127.668 13.0274 127.335 13.2941 126.919 13.383C126.587 13.4719 126.338 13.7385 126.088 14.0052C125.756 14.7163 125.423 15.5163 125.008 16.6719Z" fill="#3F3B3D"/>
<path d="M5.56878 28.4052C4.73761 28.583 4.48826 28.8497 3.98956 29.2941C3.98956 30.0941 4.07268 30.7163 4.07268 31.6052C4.07268 32.0497 4.48826 32.7608 5.48567 32.1386C6.1506 31.6052 5.81813 29.1163 6.73242 28.0497C6.31684 28.0497 5.98437 28.3164 5.56878 28.4052Z" fill="#3F3B3D"/>
<path d="M33.2467 18.0052C32.1662 18.0941 28.5922 18.183 26.5143 16.6719C26.5143 16.7608 26.5974 16.8497 26.6805 17.0274C27.9273 18.8941 29.6727 19.8719 31.2519 20.2274C32 20.1385 32.5818 20.0497 33.2467 19.6941C34.4935 19.3385 33.9948 17.9163 33.2467 18.0052Z" fill="#3F3B3D"/>
<path d="M14.6285 3.87185C16.2077 3.07185 18.3688 4.49407 20.2805 7.07184C20.6129 6.98296 20.8623 6.71629 21.1948 6.6274C19.1168 3.87185 16.7064 2.44962 14.961 3.24962C14.2129 3.60518 13.7142 4.13851 13.3818 4.93851C13.7974 4.40518 14.2129 4.13851 14.6285 3.87185Z" fill="#3F3B3D"/>
<path d="M24.5194 22.7163C24.187 24.1385 23.522 25.2052 22.6077 25.6496C22.109 25.8274 21.6103 25.8274 21.1116 25.7385C21.9428 26.0941 22.6077 26.0941 23.3558 25.7385C24.2701 25.2941 24.935 24.3163 25.3506 23.0719C25.0181 22.8941 24.6857 22.8052 24.5194 22.7163Z" fill="#3F3B3D"/>
<path d="M21.1948 5.20521C18.9506 2.62743 16.4571 1.2941 14.2961 2.18299C10.9714 3.60521 10.2233 10.3608 12.7168 17.2052C15.2104 24.0497 19.948 28.4052 23.3558 27.0719C24.6857 26.5385 25.6 25.2052 26.0155 23.4274C26.1818 22.8052 26.5142 27.3385 23.0233 28.7608C19.4493 30.2719 14.3792 25.383 11.5532 17.8274C8.72723 10.183 9.5584 2.71632 13.1324 1.11632C15.3766 -0.128125 18.535 1.73854 21.1948 5.20521Z" fill="#3F3B3D"/>
<path d="M10.1402 17.5608C8.39478 12.6719 8.22855 7.78298 9.55842 4.93854C7.9792 5.91632 6.73245 9.91632 7.9792 15.3385C6.06751 16.4941 5.15322 16.8496 3.15842 16.3163C1.5792 15.8719 0.997381 14.183 0.914264 14.3608C-0.498723 17.2941 2.65972 19.5163 4.48829 19.4274C4.32206 22.5385 2.49348 24.2274 1.66232 25.383C0.664913 26.983 0.415562 29.0274 0.249329 31.783C0.249329 32.2274 0.581796 33.1163 1.5792 32.583C2.16102 32.2274 2.16102 29.7385 3.32465 28.7608C4.32206 27.8719 4.73764 27.9608 6.64933 27.2496C8.81037 26.3608 10.7221 24.9385 10.8883 23.0719C10.9714 23.2497 11.2208 23.6052 11.387 23.8719C14.0467 27.9608 16.2078 27.2496 16.2078 27.2496C13.548 25.1163 11.5532 21.383 10.1402 17.5608Z" fill="#3F3B3D"/>
<path d="M32.2493 5.11633C32.4156 4.49411 32.748 2.983 32.0831 2.44966C31.7506 2.27189 31.335 3.24966 30.3376 3.87189C30.8363 3.96078 31.7506 4.40522 32.2493 5.11633Z" fill="#3F3B3D"/>
<path d="M33.6623 21.4719C32.1662 21.4719 28.1766 20.6719 26.0987 17.4719C24.1039 14.2719 26.2649 10.8052 29.922 11.8719C35.6571 13.5608 35.9065 10.3608 35.7402 9.2941C34.0779 8.67188 32.8311 8.4941 32.6649 7.33854C32.1662 4.84965 29.922 4.67188 29.3402 4.31632C29.2571 3.87188 28.7584 1.91632 27.761 1.91632C27.2623 1.91632 27.6779 3.96077 26.1818 5.38299C21.4441 7.33854 16.7065 9.82743 12.6337 12.4052C12.8 13.8274 13.2155 15.3385 13.8805 16.8497C14.3792 18.3608 15.1272 19.783 15.7922 20.9385C16.7896 20.9385 18.0363 20.9385 19.6155 21.0274C24.935 21.2052 28.8415 24.2274 33.5792 23.4274C34.6597 22.983 34.4104 21.5608 33.6623 21.4719ZM30.5039 6.8941C30.8363 6.8941 30.9194 7.07188 30.9194 7.42743C30.9194 7.78299 30.7532 7.87188 30.4207 7.87188C30.0883 7.87188 30.0052 7.6941 30.0052 7.33854C30.1714 7.16076 30.3376 6.8941 30.5039 6.8941Z" fill="#3F3B3D"/>
</g>
<defs>
<clipPath id="clip0_37_60">
<rect width="128" height="32" fill="white" transform="translate(0 0.671875)"/>
</clipPath>
</defs>
</svg>
